M48
;Layer_Color=9474304
;FILE_FORMAT=4:4
METRIC,LZ
;TYPE=PLATED
T1F00S00C0.1000
T2F00S00C0.7112
%
T01
X0001397Y0005969
X0003171Y0006481
X0003898Y0006643
X00067632Y00077792
X0007747Y0005969
X0009398Y0007239
X0010922Y0009398
X0012192Y0005842
X00134624Y0005901
X0012573Y0004191
X0012192Y0003683
X0010922Y000254
X0013462
X0015621Y00015191
X0018542Y0003048
Y0004064
X001778Y0004572
Y0005842
Y0009144
X0017218Y00102107
X0016256Y0009017
X0019304Y0009525
X002032
X0020447Y0010668
X0019431
X0019939Y0011303
X0020447Y0013843
X0018784Y0013577
X001778Y0015621
X0018034Y0018161
X001905Y0018288
X0021771Y0017399
X0022352Y0020066
X00232147Y00204696
X0023749Y0020701
X0025908Y0021209
Y0021717
Y0022225
X00254
X0027486Y0021757
X002794Y0021209
X0028448Y0022225
X00291431Y00232837
X00285085Y00168942
X0029718Y0013208
X00267672Y00119482
X0025781Y0011938
X0024765
X0023495Y0009271
X0021844Y0005588
X0026797Y0005461
X002286Y0014478
X00147455Y00159894
X0014294Y0016567
X0013815Y0015847
X0013322Y00158707
X0012319Y0015875
X0011811Y0015621
X0011323Y0015601
X00108303Y00157856
X0010315Y0015522
X00093147Y00154761
X00086361Y00188537
X0008055Y0019304
X00073372Y00193951
X000508Y0019304
X00050835Y00199425
X000508Y0021209
X0004991Y0022179
X0007839Y00220686
X00095112Y00202986
X0010323Y00188503
X00113208Y0019304
X00123208Y00198156
X0013322Y00202991
X0015621Y001905
X00156445Y00179375
X0015621Y0017018
X0015175Y0017461
X0016564Y0019677
X0017045Y00207452
X0016637Y0022987
X0018923
X0018542Y0029972
Y0030607
X001651Y0031496
X00158394Y0027945
X0014478Y0027686
X0013081Y0027051
X0006985Y0027178
X0004953Y0031369
X0001651Y0030099
X0002159Y0028829
X00013972Y00173994
X0001397Y0014859
X0003556Y001397
X0004318Y0013335
X000635Y0011557
X0006223Y0017399
X000508Y0018161
X00048594Y00187043
X0025654Y0029972
X00268005Y00326355
X0026035Y0033401
X0028067Y0034798
Y0036068
Y0037338
Y0038608
X0023114Y00373346
Y0036068
X0017038Y00344438
X00170174Y00339084
X00170008Y00333838
X0017018Y0032893
X0012065Y0033528
Y0035179
X00109607Y00351301
X00098361Y00356916
X0009017Y0032639
X0003175Y0035687
X0002667Y0036068
X0004064Y0038481
X0013159Y0038154
X00142592Y00381658
T02
X0001016Y0001143
X003175
Y0038481
X0001016
M30
