G04*
G04 #@! TF.GenerationSoftware,Altium Limited,Altium Designer,21.2.1 (34)*
G04*
G04 Layer_Color=8388736*
%FSLAX44Y44*%
%MOMM*%
G71*
G04*
G04 #@! TF.SameCoordinates,32138B9C-427C-45C4-8288-55465CA957BF*
G04*
G04*
G04 #@! TF.FilePolarity,Negative*
G04*
G01*
G75*
G04:AMPARAMS|DCode=10|XSize=1.1332mm|YSize=1.5132mm|CornerRadius=0.1714mm|HoleSize=0mm|Usage=FLASHONLY|Rotation=180.000|XOffset=0mm|YOffset=0mm|HoleType=Round|Shape=RoundedRectangle|*
%AMROUNDEDRECTD10*
21,1,1.1332,1.1705,0,0,180.0*
21,1,0.7905,1.5132,0,0,180.0*
1,1,0.3427,-0.3953,0.5853*
1,1,0.3427,0.3953,0.5853*
1,1,0.3427,0.3953,-0.5853*
1,1,0.3427,-0.3953,-0.5853*
%
%ADD10ROUNDEDRECTD10*%
G04:AMPARAMS|DCode=11|XSize=3.4432mm|YSize=1.5132mm|CornerRadius=0.1999mm|HoleSize=0mm|Usage=FLASHONLY|Rotation=180.000|XOffset=0mm|YOffset=0mm|HoleType=Round|Shape=RoundedRectangle|*
%AMROUNDEDRECTD11*
21,1,3.4432,1.1135,0,0,180.0*
21,1,3.0435,1.5132,0,0,180.0*
1,1,0.3997,-1.5218,0.5568*
1,1,0.3997,1.5218,0.5568*
1,1,0.3997,1.5218,-0.5568*
1,1,0.3997,-1.5218,-0.5568*
%
%ADD11ROUNDEDRECTD11*%
%ADD12R,0.5580X1.3561*%
%ADD13R,2.2032X1.1032*%
%ADD14R,1.1032X2.2032*%
%ADD15R,1.5332X1.5332*%
%ADD16R,0.8032X1.7532*%
%ADD17R,1.4032X2.0032*%
%ADD18R,2.0032X1.4032*%
%ADD19R,1.7532X0.8032*%
%ADD20R,1.5494X0.6604*%
%ADD21R,2.1082X1.4986*%
G04:AMPARAMS|DCode=22|XSize=2.1732mm|YSize=0.8032mm|CornerRadius=0.1766mm|HoleSize=0mm|Usage=FLASHONLY|Rotation=0.000|XOffset=0mm|YOffset=0mm|HoleType=Round|Shape=RoundedRectangle|*
%AMROUNDEDRECTD22*
21,1,2.1732,0.4500,0,0,0.0*
21,1,1.8200,0.8032,0,0,0.0*
1,1,0.3532,0.9100,-0.2250*
1,1,0.3532,-0.9100,-0.2250*
1,1,0.3532,-0.9100,0.2250*
1,1,0.3532,0.9100,0.2250*
%
%ADD22ROUNDEDRECTD22*%
%ADD23C,0.4032*%
%ADD24C,1.4732*%
D10*
X77510Y77900D02*
D03*
X54610D02*
D03*
X31710D02*
D03*
D11*
X54610Y11000D02*
D03*
D12*
X109220Y15191D02*
D03*
X121920D02*
D03*
X134620D02*
D03*
X147320D02*
D03*
Y68629D02*
D03*
X134620D02*
D03*
X121920D02*
D03*
X109220D02*
D03*
D13*
X35740Y313690D02*
D03*
Y300990D02*
D03*
Y288290D02*
D03*
Y275590D02*
D03*
Y262890D02*
D03*
Y250190D02*
D03*
Y237490D02*
D03*
Y224790D02*
D03*
Y212090D02*
D03*
Y199390D02*
D03*
Y186690D02*
D03*
Y173990D02*
D03*
Y161290D02*
D03*
Y148590D02*
D03*
X205740Y313690D02*
D03*
Y300990D02*
D03*
Y288290D02*
D03*
Y275590D02*
D03*
Y262890D02*
D03*
Y250190D02*
D03*
Y237490D02*
D03*
Y224790D02*
D03*
Y212090D02*
D03*
Y199390D02*
D03*
Y186690D02*
D03*
Y173990D02*
D03*
Y161290D02*
D03*
Y148590D02*
D03*
D14*
X63590Y138590D02*
D03*
X76290D02*
D03*
X88990D02*
D03*
X101690D02*
D03*
X114390D02*
D03*
X127090D02*
D03*
X139790D02*
D03*
X152490D02*
D03*
X165190D02*
D03*
X177890D02*
D03*
D15*
X129090Y238690D02*
D03*
X92070D02*
D03*
X110740D02*
D03*
Y220340D02*
D03*
X129090Y257040D02*
D03*
Y220340D02*
D03*
X92070Y257040D02*
D03*
X110740D02*
D03*
X92390Y220340D02*
D03*
D16*
X245110Y196850D02*
D03*
X255110D02*
D03*
X265110D02*
D03*
X275110D02*
D03*
X285110D02*
D03*
Y157480D02*
D03*
X275110D02*
D03*
X265110D02*
D03*
X255110D02*
D03*
X245110D02*
D03*
D17*
X232110Y222100D02*
D03*
X298110D02*
D03*
Y182730D02*
D03*
X232110D02*
D03*
D18*
X170880Y73720D02*
D03*
Y17720D02*
D03*
D19*
X196130Y60720D02*
D03*
Y50720D02*
D03*
Y40720D02*
D03*
Y30720D02*
D03*
D20*
X267970Y34290D02*
D03*
Y44290D02*
D03*
X219192Y34370D02*
D03*
Y44370D02*
D03*
D21*
X293220Y21290D02*
D03*
Y57290D02*
D03*
X244442Y21370D02*
D03*
Y57370D02*
D03*
D22*
X244490Y331470D02*
D03*
Y318770D02*
D03*
Y306070D02*
D03*
Y293370D02*
D03*
Y280670D02*
D03*
Y267970D02*
D03*
Y255270D02*
D03*
Y242570D02*
D03*
X293990D02*
D03*
Y255270D02*
D03*
Y267970D02*
D03*
Y280670D02*
D03*
Y293370D02*
D03*
Y306070D02*
D03*
Y318770D02*
D03*
Y331470D02*
D03*
X293940Y386080D02*
D03*
Y373380D02*
D03*
Y360680D02*
D03*
Y347980D02*
D03*
X244540D02*
D03*
Y360680D02*
D03*
Y373380D02*
D03*
Y386080D02*
D03*
D23*
X67632Y77792D02*
D03*
X77470Y59690D02*
D03*
X38980Y66430D02*
D03*
X193040Y95250D02*
D03*
X35560Y139700D02*
D03*
X63500Y115570D02*
D03*
X93980Y72390D02*
D03*
X280670Y373380D02*
D03*
Y360680D02*
D03*
Y347980D02*
D03*
X13970Y59690D02*
D03*
X31710Y64810D02*
D03*
X62230Y173990D02*
D03*
X125730Y41910D02*
D03*
X121920Y58420D02*
D03*
X49910Y221790D02*
D03*
X13970Y148590D02*
D03*
X109220Y25400D02*
D03*
Y93980D02*
D03*
X156210Y15191D02*
D03*
X134624Y59010D02*
D03*
X134620Y25400D02*
D03*
X177800Y91440D02*
D03*
X162560Y90170D02*
D03*
X228600Y144780D02*
D03*
X204470Y106680D02*
D03*
Y138430D02*
D03*
X13972Y173994D02*
D03*
X180340Y181610D02*
D03*
X156445Y179375D02*
D03*
X165640Y196770D02*
D03*
X156210Y190500D02*
D03*
X189230Y229870D02*
D03*
X142592Y381658D02*
D03*
X172180Y102107D02*
D03*
X93147Y154761D02*
D03*
X118110Y156210D02*
D03*
X123190Y158750D02*
D03*
X113230Y156010D02*
D03*
X103150Y155220D02*
D03*
X108303Y157856D02*
D03*
X177800Y156210D02*
D03*
X280670Y386080D02*
D03*
X16510Y300990D02*
D03*
X21590Y288290D02*
D03*
X267672Y119482D02*
D03*
X203200Y95250D02*
D03*
X199390Y113030D02*
D03*
X194310Y106680D02*
D03*
X247650Y119380D02*
D03*
X257810D02*
D03*
X190500Y182880D02*
D03*
X187840Y135770D02*
D03*
X260350Y334010D02*
D03*
X268005Y326355D02*
D03*
X256540Y299720D02*
D03*
X274860Y217570D02*
D03*
X284480Y222250D02*
D03*
X259080Y212090D02*
D03*
Y217170D02*
D03*
Y222250D02*
D03*
X297180Y132080D02*
D03*
X90170Y326390D02*
D03*
X131590Y381540D02*
D03*
X109607Y351301D02*
D03*
X50800Y193040D02*
D03*
X86361Y188537D02*
D03*
X151750Y174610D02*
D03*
X48594Y187043D02*
D03*
X156210Y170180D02*
D03*
X138150Y158470D02*
D03*
X130810Y270510D02*
D03*
X80550Y193040D02*
D03*
X69850Y271780D02*
D03*
X43180Y133350D02*
D03*
X50800Y181610D02*
D03*
X217710Y173990D02*
D03*
X223520Y200660D02*
D03*
X73372Y193951D02*
D03*
X50835Y199425D02*
D03*
X147455Y159894D02*
D03*
X142940Y165670D02*
D03*
X121920Y36830D02*
D03*
X50800Y212090D02*
D03*
X49530Y313690D02*
D03*
X254000Y222250D02*
D03*
X234950Y92710D02*
D03*
X165100Y314960D02*
D03*
X98361Y356916D02*
D03*
X120650Y335280D02*
D03*
Y351790D02*
D03*
X170008Y333838D02*
D03*
X170380Y344438D02*
D03*
X170450Y207452D02*
D03*
X185420Y299720D02*
D03*
Y306070D02*
D03*
X26670Y360680D02*
D03*
X31750Y356870D02*
D03*
X40640Y384810D02*
D03*
X232147Y204696D02*
D03*
X237490Y207010D02*
D03*
X291431Y232837D02*
D03*
X218440Y55880D02*
D03*
X267970Y54610D02*
D03*
X279400Y212090D02*
D03*
X185420Y40640D02*
D03*
Y30480D02*
D03*
X177800Y58420D02*
D03*
Y45720D02*
D03*
X170174Y339084D02*
D03*
X170180Y328930D02*
D03*
X166370Y229870D02*
D03*
X285085Y168942D02*
D03*
X231140Y373346D02*
D03*
Y360680D02*
D03*
X144780Y276860D02*
D03*
X158394Y279450D02*
D03*
X123208Y198156D02*
D03*
X133220Y202991D02*
D03*
X113208Y193040D02*
D03*
X95112Y202986D02*
D03*
X103230Y188503D02*
D03*
X78390Y220686D02*
D03*
X133220Y158707D02*
D03*
D24*
X10160Y11430D02*
D03*
X317500D02*
D03*
Y384810D02*
D03*
X10160D02*
D03*
M02*
