G04*
G04 #@! TF.GenerationSoftware,Altium Limited,Altium Designer,21.2.1 (34)*
G04*
G04 Layer_Physical_Order=2*
G04 Layer_Color=16711680*
%FSLAX44Y44*%
%MOMM*%
G71*
G04*
G04 #@! TF.SameCoordinates,32138B9C-427C-45C4-8288-55465CA957BF*
G04*
G04*
G04 #@! TF.FilePolarity,Positive*
G04*
G01*
G75*
%ADD30R,0.6000X1.5500*%
%ADD31R,1.2000X1.8000*%
G04:AMPARAMS|DCode=35|XSize=1.97mm|YSize=0.6mm|CornerRadius=0.075mm|HoleSize=0mm|Usage=FLASHONLY|Rotation=0.000|XOffset=0mm|YOffset=0mm|HoleType=Round|Shape=RoundedRectangle|*
%AMROUNDEDRECTD35*
21,1,1.9700,0.4500,0,0,0.0*
21,1,1.8200,0.6000,0,0,0.0*
1,1,0.1500,0.9100,-0.2250*
1,1,0.1500,-0.9100,-0.2250*
1,1,0.1500,-0.9100,0.2250*
1,1,0.1500,0.9100,0.2250*
%
%ADD35ROUNDEDRECTD35*%
%ADD36C,0.2540*%
%ADD37C,0.2000*%
%ADD38C,1.2700*%
G04:AMPARAMS|DCode=39|XSize=0.49mm|YSize=0.6mm|CornerRadius=0.049mm|HoleSize=0mm|Usage=FLASHONLY|Rotation=90.000|XOffset=0mm|YOffset=0mm|HoleType=Round|Shape=RoundedRectangle|*
%AMROUNDEDRECTD39*
21,1,0.4900,0.5020,0,0,90.0*
21,1,0.3920,0.6000,0,0,90.0*
1,1,0.0980,0.2510,0.1960*
1,1,0.0980,0.2510,-0.1960*
1,1,0.0980,-0.2510,-0.1960*
1,1,0.0980,-0.2510,0.1960*
%
%ADD39ROUNDEDRECTD39*%
%ADD40R,0.7000X0.9000*%
%ADD41R,0.9000X0.7000*%
%ADD42R,1.1000X1.0000*%
%ADD43R,1.4500X1.1500*%
G04:AMPARAMS|DCode=44|XSize=0.49mm|YSize=0.6mm|CornerRadius=0.049mm|HoleSize=0mm|Usage=FLASHONLY|Rotation=0.000|XOffset=0mm|YOffset=0mm|HoleType=Round|Shape=RoundedRectangle|*
%AMROUNDEDRECTD44*
21,1,0.4900,0.5020,0,0,0.0*
21,1,0.3920,0.6000,0,0,0.0*
1,1,0.0980,0.1960,-0.2510*
1,1,0.0980,-0.1960,-0.2510*
1,1,0.0980,-0.1960,0.2510*
1,1,0.0980,0.1960,0.2510*
%
%ADD44ROUNDEDRECTD44*%
%ADD45R,0.8000X1.5000*%
%ADD46R,1.0000X0.9500*%
%ADD47R,1.3000X1.4000*%
%ADD48R,1.4000X1.9000*%
%ADD49R,1.0000X1.1000*%
%ADD50R,1.1176X0.4826*%
%ADD51R,1.1500X1.4500*%
%ADD52R,1.4000X1.0000*%
%ADD53R,0.3000X1.1000*%
%ADD54R,2.3000X3.1000*%
G36*
X190460Y388930D02*
X196515D01*
X198442Y387002D01*
X199524Y386280D01*
X200800Y386026D01*
X208124D01*
X208635Y385262D01*
X208676Y385183D01*
X209055Y384015D01*
X208505Y383191D01*
X208311Y382220D01*
Y378590D01*
X207614Y378152D01*
X207069Y378036D01*
X203018Y382088D01*
X201936Y382810D01*
X200660Y383064D01*
X153781D01*
X150382Y386463D01*
X150869Y387636D01*
X181690D01*
X182966Y387890D01*
X184048Y388613D01*
X184365Y388930D01*
X187920D01*
Y400970D01*
X190460D01*
Y388930D01*
D02*
G37*
G36*
X311086Y359839D02*
Y349338D01*
X309913Y348853D01*
X283027Y375737D01*
X281946Y376460D01*
X280670Y376714D01*
X279394Y376460D01*
X278312Y375737D01*
X277590Y374656D01*
X277336Y373380D01*
X277590Y372104D01*
X278312Y371022D01*
X306546Y342789D01*
Y320858D01*
X305373Y320373D01*
X304618Y321128D01*
X303713Y321732D01*
X303599Y322304D01*
X302872Y323392D01*
X301784Y324119D01*
X300500Y324375D01*
X292670D01*
Y318770D01*
Y313165D01*
X299606D01*
X300781Y312012D01*
Y311354D01*
X300500Y311124D01*
X282300D01*
X281227Y310910D01*
X280317Y310303D01*
X279921Y310264D01*
X268384Y321801D01*
X268802Y323179D01*
X269281Y323274D01*
X270363Y323997D01*
X271085Y325079D01*
X271339Y326355D01*
X271085Y327631D01*
X270363Y328712D01*
X262708Y336367D01*
X261626Y337090D01*
X260350Y337344D01*
X259074Y337090D01*
X257992Y336367D01*
X257270Y335286D01*
X257016Y334010D01*
X257270Y332734D01*
X257992Y331652D01*
X259841Y329804D01*
X259315Y328534D01*
X254467D01*
X253904Y329220D01*
Y333720D01*
X253690Y334793D01*
X253083Y335703D01*
X252173Y336310D01*
X251100Y336524D01*
X232900D01*
X231827Y336310D01*
X230917Y335703D01*
X230310Y334793D01*
X230096Y333720D01*
Y332677D01*
X228959Y331906D01*
X228134Y332310D01*
Y335053D01*
X213134D01*
Y321053D01*
X228134D01*
Y321614D01*
X229250Y322214D01*
X230219Y321639D01*
X230096Y321020D01*
Y316520D01*
X229402Y315674D01*
X213551D01*
X209346Y319879D01*
X209832Y321053D01*
X211134D01*
Y335053D01*
X200551D01*
X200063Y336186D01*
X200757Y337034D01*
X203008D01*
X203979Y337227D01*
X204803Y337778D01*
X204834Y337824D01*
X206362D01*
X206393Y337778D01*
X207216Y337227D01*
X208188Y337034D01*
X212108D01*
X213079Y337227D01*
X213903Y337778D01*
X214453Y338601D01*
X214646Y339573D01*
Y344593D01*
X214453Y345564D01*
X213903Y346388D01*
X213482Y346670D01*
Y349648D01*
X214045Y350025D01*
X214596Y350848D01*
X214789Y351820D01*
Y356840D01*
X214596Y357812D01*
X214045Y358635D01*
X213624Y358917D01*
Y361909D01*
X214043Y362537D01*
X214237Y363509D01*
Y368529D01*
X214043Y369500D01*
X213493Y370324D01*
X212884Y370731D01*
Y370840D01*
X212630Y372116D01*
X211908Y373198D01*
X210586Y374519D01*
X210702Y375065D01*
X211140Y375761D01*
X213144D01*
X214813Y374092D01*
X215894Y373370D01*
X217170Y373116D01*
X220203D01*
X220485Y372695D01*
X221308Y372145D01*
X222280Y371951D01*
X223285D01*
X223880Y370681D01*
X223466Y370062D01*
X223212Y368786D01*
Y355114D01*
X223466Y353838D01*
X224189Y352756D01*
X231322Y345622D01*
X232404Y344900D01*
X233680Y344646D01*
X280670D01*
X281946Y344900D01*
X283027Y345622D01*
X283750Y346704D01*
X284004Y347980D01*
X283750Y349256D01*
X283027Y350337D01*
X281946Y351060D01*
X280670Y351314D01*
X235061D01*
X230493Y355882D01*
X230543Y356203D01*
X231140Y357346D01*
X280670D01*
X281946Y357600D01*
X283027Y358322D01*
X283750Y359404D01*
X284004Y360680D01*
X283750Y361956D01*
X283027Y363037D01*
X281946Y363760D01*
X280670Y364014D01*
X231140D01*
X230862Y363959D01*
X229880Y364765D01*
Y367405D01*
X233464Y370989D01*
X234187Y372071D01*
X234440Y373346D01*
X234187Y374622D01*
X233464Y375704D01*
X231489Y377678D01*
X230408Y378401D01*
X229817Y378518D01*
X229646Y379381D01*
X229095Y380205D01*
X229330Y381377D01*
X230131Y382216D01*
X280140D01*
X281416Y382470D01*
X282498Y383192D01*
X283027Y383722D01*
X283750Y384804D01*
X283846Y385283D01*
X285224Y385701D01*
X311086Y359839D01*
D02*
G37*
G36*
X88860Y360030D02*
X92590D01*
Y358570D01*
X95026D01*
Y356916D01*
X95280Y355640D01*
X96003Y354559D01*
X97085Y353836D01*
X98361Y353582D01*
X99636Y353836D01*
X100718Y354559D01*
X101441Y355640D01*
X101694Y356916D01*
Y358570D01*
X104590D01*
Y360570D01*
X106256D01*
Y351317D01*
X106510Y350042D01*
X105829Y348774D01*
X87811D01*
X79534Y357052D01*
Y358570D01*
X82590D01*
Y360030D01*
X86320D01*
Y370070D01*
X88860D01*
Y360030D01*
D02*
G37*
G36*
X327660Y0D02*
X0D01*
Y394970D01*
X48150D01*
Y392240D01*
X57690D01*
Y390970D01*
X58960D01*
Y378930D01*
X67230D01*
Y387636D01*
X78819D01*
X84296Y382159D01*
Y380110D01*
X81050D01*
Y377570D01*
X59590D01*
Y358570D01*
X62256D01*
Y354780D01*
X62510Y353504D01*
X63232Y352422D01*
X77112Y338543D01*
X78194Y337820D01*
X79470Y337566D01*
X116833D01*
X117518Y336296D01*
X117316Y335280D01*
X117570Y334004D01*
X118293Y332923D01*
X119374Y332200D01*
X120650Y331946D01*
X126748D01*
X137201Y321493D01*
X137847Y321061D01*
X137462Y319791D01*
X62142D01*
X61616Y321061D01*
X63611Y323056D01*
X88900D01*
Y326390D01*
Y329724D01*
X62230D01*
X60954Y329470D01*
X59872Y328747D01*
X54037Y322912D01*
X52864Y323399D01*
Y378930D01*
X56420D01*
Y389700D01*
X48150D01*
Y384587D01*
X47172Y383610D01*
X46450Y382528D01*
X46196Y381252D01*
Y314960D01*
X49530D01*
Y313690D01*
X50800D01*
Y310384D01*
X51535Y310689D01*
X52531Y311685D01*
X52737Y312182D01*
X57299Y316744D01*
X58569Y316218D01*
Y294770D01*
X58637Y294429D01*
X58420Y294164D01*
X57144Y293910D01*
X56062Y293188D01*
X40797Y277922D01*
X39624Y278409D01*
Y379079D01*
X42997Y382453D01*
X43720Y383534D01*
X43974Y384810D01*
X43720Y386086D01*
X42997Y387168D01*
X41916Y387890D01*
X40640Y388144D01*
X39364Y387890D01*
X38282Y387168D01*
X33932Y382817D01*
X33210Y381736D01*
X32956Y380460D01*
Y360965D01*
X31974Y360159D01*
X31750Y360204D01*
X31274Y360109D01*
X30142Y360618D01*
X29933Y361039D01*
X29750Y361956D01*
X29028Y363037D01*
X27946Y363760D01*
X26670Y364014D01*
X25394Y363760D01*
X24313Y363037D01*
X23590Y361956D01*
X23336Y360680D01*
Y292467D01*
X22066Y291529D01*
X21590Y291624D01*
X20314Y291370D01*
X19232Y290648D01*
X18510Y289566D01*
X18256Y288290D01*
Y176151D01*
X18054Y176015D01*
X16329Y176352D01*
X15248Y177074D01*
X13972Y177328D01*
X12696Y177074D01*
X11614Y176352D01*
X11612Y176350D01*
X10890Y175268D01*
X10636Y173992D01*
Y170175D01*
X10488Y170145D01*
X9665Y169595D01*
X9115Y168771D01*
X8921Y167800D01*
Y163880D01*
X9115Y162908D01*
X9665Y162085D01*
X9711Y162054D01*
Y160526D01*
X9665Y160495D01*
X9115Y159671D01*
X8921Y158700D01*
Y154780D01*
X9115Y153808D01*
X9665Y152985D01*
X10488Y152435D01*
X10636Y152405D01*
Y148590D01*
X10890Y147314D01*
X11612Y146233D01*
X12694Y145510D01*
X13970Y145256D01*
X15246Y145510D01*
X16328Y146233D01*
X16986Y147218D01*
X17078Y147228D01*
X18256Y146445D01*
Y113030D01*
X18510Y111754D01*
X19232Y110673D01*
X44992Y84913D01*
X44506Y83740D01*
X40250D01*
Y76200D01*
X38980D01*
Y74930D01*
X30940D01*
Y69574D01*
X30232Y69348D01*
X29480Y69979D01*
Y83200D01*
X14480D01*
Y69200D01*
X18385D01*
X18510Y68574D01*
X19232Y67492D01*
X22528Y64197D01*
X22041Y63024D01*
X13970D01*
X12694Y62770D01*
X11612Y62048D01*
X11463Y61898D01*
X10740Y60816D01*
X10486Y59540D01*
Y56030D01*
X8320D01*
Y43030D01*
X8320D01*
Y42060D01*
X8320D01*
Y29060D01*
X19320D01*
Y42060D01*
X19320D01*
Y43030D01*
X19320D01*
Y54638D01*
X20590Y55271D01*
X20780Y55128D01*
Y50800D01*
X26820D01*
Y48260D01*
X20780D01*
Y42490D01*
Y36830D01*
X26820D01*
Y35560D01*
X28090D01*
Y28520D01*
X29145D01*
X29653Y28012D01*
X30734Y27290D01*
X32010Y27036D01*
X33390D01*
Y22080D01*
X41910D01*
Y30370D01*
Y38660D01*
X34463D01*
X33530Y39930D01*
X33715Y40523D01*
X33930Y40620D01*
X52430D01*
Y56120D01*
X46514D01*
Y57150D01*
X46260Y58426D01*
X45538Y59508D01*
X43219Y61826D01*
X43432Y62688D01*
X43708Y63096D01*
X49029D01*
X56356Y55769D01*
Y34401D01*
X55659Y33704D01*
X52970D01*
Y38660D01*
X44450D01*
Y30370D01*
Y22080D01*
X52970D01*
Y27036D01*
X57040D01*
X58316Y27290D01*
X59398Y28012D01*
X62048Y30663D01*
X62770Y31744D01*
X63024Y33020D01*
Y47305D01*
X64294Y47831D01*
X106862Y5263D01*
X107944Y4540D01*
X109220Y4286D01*
X158750D01*
X160026Y4540D01*
X161108Y5263D01*
X165068Y9222D01*
X165790Y10304D01*
X166044Y11580D01*
Y18900D01*
X168210D01*
Y22066D01*
X180340D01*
X181616Y22320D01*
X182698Y23043D01*
X187778Y28122D01*
X188500Y29204D01*
X188754Y30480D01*
X188500Y31756D01*
X187778Y32838D01*
X186696Y33560D01*
X185420Y33814D01*
X184144Y33560D01*
X183062Y32838D01*
X178959Y28734D01*
X168210D01*
Y31900D01*
X165364D01*
Y33513D01*
X165785Y33795D01*
X166336Y34618D01*
X166529Y35590D01*
Y40320D01*
X167225Y40758D01*
X167771Y40874D01*
X170362Y38282D01*
X171444Y37560D01*
X172720Y37306D01*
X185420D01*
X186696Y37560D01*
X187778Y38282D01*
X188500Y39364D01*
X188754Y40640D01*
X188500Y41916D01*
X187778Y42997D01*
X186696Y43720D01*
X185420Y43974D01*
X182036D01*
X181718Y44450D01*
X177800D01*
Y46990D01*
X181134D01*
Y57150D01*
X177800D01*
Y59690D01*
X181106D01*
X180801Y60425D01*
X179805Y61421D01*
X179725Y61454D01*
X179427Y62952D01*
X200581Y84106D01*
X204280D01*
X205556Y84360D01*
X206637Y85083D01*
X213933Y92378D01*
X215106Y91891D01*
Y55880D01*
X215360Y54604D01*
X216082Y53523D01*
X217164Y52800D01*
X218440Y52546D01*
X219716Y52800D01*
X220798Y53523D01*
X221520Y54604D01*
X221774Y55880D01*
Y71571D01*
X222947Y72058D01*
X242752Y52252D01*
X243834Y51530D01*
X245110Y51276D01*
X267970D01*
X269246Y51530D01*
X270327Y52252D01*
X271050Y53334D01*
X271304Y54610D01*
X271050Y55886D01*
X270327Y56968D01*
X269246Y57690D01*
X267970Y57944D01*
X246491D01*
X226854Y77581D01*
Y94020D01*
X230286D01*
X230361Y93980D01*
X238868D01*
X238895Y94020D01*
X243350D01*
Y102226D01*
X282270D01*
Y94020D01*
X289540D01*
Y105560D01*
X290810D01*
Y106830D01*
X299350D01*
Y110056D01*
X299740Y110134D01*
X300822Y110857D01*
X316777Y126812D01*
X317500Y127894D01*
X317754Y129170D01*
Y361220D01*
X317500Y362496D01*
X316777Y363577D01*
X286655Y393700D01*
X287181Y394970D01*
X327660D01*
Y0D01*
D02*
G37*
G36*
X156036Y277093D02*
X157118Y276370D01*
X158394Y276116D01*
X159670Y276370D01*
X160496Y276922D01*
X161407Y276619D01*
X161766Y276360D01*
Y263934D01*
X162020Y262658D01*
X162743Y261576D01*
X171656Y252663D01*
Y244323D01*
X166878D01*
Y239370D01*
X164338D01*
Y244323D01*
X157480D01*
Y242704D01*
X138176D01*
Y244323D01*
X133382D01*
Y249930D01*
X139730D01*
Y258200D01*
X130690D01*
Y260740D01*
X139730D01*
Y269010D01*
X135395D01*
X135093Y269240D01*
X126527D01*
X126225Y269010D01*
X121650D01*
Y262804D01*
X101096D01*
X96302Y267598D01*
X95220Y268320D01*
X93945Y268574D01*
X82730D01*
Y269010D01*
X73459D01*
X72780Y270280D01*
X72930Y270504D01*
X73184Y271780D01*
X72930Y273056D01*
X72207Y274137D01*
X71126Y274860D01*
X69850Y275114D01*
X59690D01*
X58414Y274860D01*
X57333Y274137D01*
X52252Y269058D01*
X51530Y267976D01*
X51276Y266700D01*
Y252725D01*
X51128Y252696D01*
X50305Y252145D01*
X49974Y251650D01*
X48704Y252035D01*
Y267509D01*
X63611Y282416D01*
X134509D01*
X142423Y274503D01*
X143504Y273780D01*
X144780Y273526D01*
X146056Y273780D01*
X147137Y274503D01*
X147860Y275584D01*
X148114Y276860D01*
X147860Y278136D01*
X147137Y279217D01*
X140032Y286323D01*
X140519Y287496D01*
X145633D01*
X156036Y277093D01*
D02*
G37*
G36*
X277043Y303713D02*
X278124Y302990D01*
X279400Y302736D01*
X279717D01*
X280317Y301837D01*
X281227Y301230D01*
X282300Y301016D01*
X300500D01*
X300781Y300786D01*
Y300128D01*
X299606Y298974D01*
X292670D01*
Y293370D01*
Y287766D01*
X300500D01*
X301466Y286973D01*
Y282707D01*
X300500Y281914D01*
X282300D01*
X281227Y281700D01*
X280317Y281093D01*
X279710Y280183D01*
X279496Y279110D01*
Y274610D01*
X279710Y273537D01*
X280317Y272627D01*
X281227Y272020D01*
X282300Y271806D01*
X300500D01*
X300781Y271576D01*
Y270918D01*
X299606Y269764D01*
X292670D01*
Y264160D01*
Y258556D01*
X299606D01*
X300781Y257402D01*
Y256744D01*
X300500Y256514D01*
X282300D01*
X281227Y256300D01*
X280317Y255693D01*
X279710Y254783D01*
X279672Y254596D01*
X279394Y254540D01*
X278312Y253818D01*
X265587Y241092D01*
X264414Y241579D01*
Y304070D01*
X264160Y305346D01*
X263438Y306427D01*
X255168Y314697D01*
X254086Y315420D01*
X253700Y315497D01*
X253904Y316520D01*
Y321020D01*
X254598Y321866D01*
X258889D01*
X277043Y303713D01*
D02*
G37*
G36*
X74960Y249930D02*
X82730D01*
Y250470D01*
X94590D01*
Y258220D01*
X95763Y258706D01*
X97357Y257113D01*
X98439Y256390D01*
X99714Y256136D01*
X121650D01*
Y249930D01*
X126714D01*
Y244323D01*
X121920D01*
Y240640D01*
X130048D01*
Y238100D01*
X121920D01*
Y234417D01*
X121920D01*
X121782Y233204D01*
X113760D01*
Y234283D01*
X98740D01*
Y236870D01*
X80740D01*
Y224020D01*
X78390D01*
X78010Y223945D01*
X76740Y224928D01*
Y227370D01*
X70367D01*
X69668Y228417D01*
X66985Y231100D01*
X67511Y232370D01*
X76740D01*
Y246370D01*
X71074D01*
Y246902D01*
X70820Y248178D01*
X70498Y248660D01*
X71177Y249930D01*
X72420D01*
Y259470D01*
X74960D01*
Y249930D01*
D02*
G37*
G36*
X189230Y226536D02*
X191120D01*
Y221980D01*
X205120D01*
Y224629D01*
X206390Y225155D01*
X214461Y217084D01*
X213935Y215814D01*
X205660D01*
Y220520D01*
X199390D01*
Y212480D01*
Y204440D01*
X205660D01*
Y209146D01*
X222982D01*
X228940Y203188D01*
X229146Y202691D01*
X230142Y201695D01*
X230877Y201390D01*
Y204696D01*
X233417D01*
Y201390D01*
X234152Y201695D01*
X235148Y202691D01*
X235286Y203023D01*
X236193Y203909D01*
X236877Y203798D01*
X237490Y203676D01*
X237714Y203720D01*
X238696Y202915D01*
Y149501D01*
X233044Y143849D01*
X231873Y144475D01*
X231934Y144780D01*
X231680Y146056D01*
X230958Y147137D01*
X226854Y151241D01*
Y200660D01*
X226600Y201936D01*
X225877Y203018D01*
X224796Y203740D01*
X223520Y203994D01*
X222244Y203740D01*
X221162Y203018D01*
X220440Y201936D01*
X220186Y200660D01*
Y177796D01*
X219005Y177082D01*
X218916Y177084D01*
X217710Y177324D01*
X216434Y177070D01*
X215352Y176348D01*
X211542Y172537D01*
X210820Y171456D01*
X210566Y170180D01*
Y132200D01*
X209392Y131966D01*
X209296Y131986D01*
X208775Y132765D01*
X207952Y133315D01*
X207804Y133345D01*
Y138430D01*
X207550Y139706D01*
X206828Y140787D01*
X205746Y141510D01*
X204470Y141764D01*
X203194Y141510D01*
X202113Y140787D01*
X201390Y139706D01*
X201136Y138430D01*
Y133345D01*
X200988Y133315D01*
X200165Y132765D01*
X199615Y131941D01*
X199421Y130970D01*
Y127050D01*
X199615Y126079D01*
X200165Y125255D01*
X200211Y125224D01*
Y123696D01*
X200165Y123665D01*
X199615Y122842D01*
X199421Y121870D01*
Y117950D01*
X199495Y117581D01*
X199431Y116839D01*
X198602Y116207D01*
X198114Y116110D01*
X197033Y115387D01*
X196819Y115068D01*
X195549Y115453D01*
Y118060D01*
X195355Y119031D01*
X194805Y119855D01*
X194759Y119886D01*
Y121414D01*
X194805Y121445D01*
X195355Y122268D01*
X195549Y123240D01*
Y127160D01*
X195355Y128132D01*
X194805Y128955D01*
X193982Y129506D01*
X193010Y129699D01*
X190166D01*
X188808Y131057D01*
X189171Y132490D01*
X189845Y132769D01*
X190841Y133765D01*
X191146Y134500D01*
X187840D01*
Y135770D01*
X186570D01*
Y139104D01*
X181650D01*
Y144280D01*
X208350D01*
Y179280D01*
X193284D01*
X192908Y180375D01*
X192876Y180550D01*
X193580Y181604D01*
X193834Y182880D01*
X193580Y184156D01*
X192857Y185238D01*
X188024Y190071D01*
Y225775D01*
X189006Y226581D01*
X189230Y226536D01*
D02*
G37*
G36*
X281227Y246620D02*
X282300Y246406D01*
X300500D01*
X300781Y246176D01*
Y245518D01*
X299606Y244364D01*
X292670D01*
Y238760D01*
X291400D01*
Y237490D01*
X278946D01*
Y236510D01*
X279201Y235226D01*
X279928Y234138D01*
X281016Y233411D01*
X282300Y233155D01*
X287891D01*
Y232133D01*
X288430Y230832D01*
X289426Y229836D01*
X290161Y229532D01*
Y232837D01*
X292701D01*
Y229532D01*
X293437Y229836D01*
X294432Y230832D01*
X294971Y232133D01*
Y233155D01*
X300500D01*
X301784Y233411D01*
X302872Y234138D01*
X303599Y235226D01*
X303713Y235798D01*
X304618Y236402D01*
X305373Y237157D01*
X306546Y236672D01*
Y195118D01*
X282728Y171300D01*
X282005Y170218D01*
X281751Y168942D01*
X282005Y167666D01*
X282728Y166585D01*
X283810Y165862D01*
X285085Y165608D01*
X286361Y165862D01*
X287443Y166585D01*
X309913Y189055D01*
X311086Y188568D01*
Y130551D01*
X297635Y117100D01*
X295135D01*
X294164Y117830D01*
Y124349D01*
X298688Y128873D01*
X299185Y129079D01*
X300181Y130075D01*
X300486Y130810D01*
X297180D01*
Y132080D01*
X295910D01*
Y135386D01*
X295175Y135081D01*
X294179Y134085D01*
X293973Y133588D01*
X288472Y128088D01*
X287900Y127231D01*
X286516Y126819D01*
X285490Y127845D01*
X284408Y128568D01*
X283350Y128779D01*
Y129540D01*
X279080D01*
Y120520D01*
X283350D01*
X283350Y120520D01*
Y120520D01*
X284216Y119689D01*
X285632Y118273D01*
X285146Y117100D01*
X282270D01*
Y108894D01*
X243350D01*
Y117100D01*
X236080D01*
Y105560D01*
X233540D01*
Y117100D01*
X226854D01*
Y121809D01*
X241637Y136592D01*
X242810Y136106D01*
Y121060D01*
X243650D01*
X244398Y119790D01*
X244316Y119380D01*
X244570Y118104D01*
X245292Y117022D01*
X246374Y116300D01*
X247650Y116046D01*
X248926Y116300D01*
X250007Y117022D01*
X250168Y117183D01*
X250890Y118264D01*
X251144Y119540D01*
Y120162D01*
X252042Y121060D01*
X252810D01*
Y121060D01*
X252810D01*
Y121060D01*
X254476D01*
Y119380D01*
X254730Y118104D01*
X255452Y117022D01*
X256534Y116300D01*
X257810Y116046D01*
X259086Y116300D01*
X260168Y117022D01*
X260890Y118104D01*
X261144Y119380D01*
Y121060D01*
X263657D01*
X264400Y119790D01*
X264338Y119482D01*
X264592Y118206D01*
X265315Y117124D01*
X266397Y116402D01*
X267672Y116148D01*
X268948Y116402D01*
X270030Y117124D01*
X270168Y117262D01*
X270890Y118344D01*
X271144Y119620D01*
Y120172D01*
X272270Y120520D01*
Y120520D01*
X276540D01*
Y130810D01*
Y141100D01*
X272270D01*
Y140560D01*
X254080D01*
X252810Y140560D01*
Y140560D01*
X252810D01*
Y140560D01*
X247264D01*
X246778Y141733D01*
X250007Y144963D01*
X250730Y146044D01*
X250984Y147320D01*
Y218805D01*
X252254Y219484D01*
X252724Y219170D01*
X254000Y218916D01*
X254934Y219102D01*
X255268Y218896D01*
X255726Y218438D01*
X255932Y218104D01*
X255746Y217170D01*
X256000Y215894D01*
X256723Y214813D01*
Y214447D01*
X256000Y213366D01*
X255746Y212090D01*
X256000Y210814D01*
X256723Y209732D01*
X257804Y209010D01*
X259080Y208756D01*
X279400D01*
X280676Y209010D01*
X281758Y209732D01*
X282480Y210814D01*
X282734Y212090D01*
X282480Y213366D01*
X281758Y214447D01*
X280676Y215170D01*
X279400Y215424D01*
X278770D01*
X278020Y216694D01*
X278194Y217570D01*
X278179Y217646D01*
X279221Y218916D01*
X284480D01*
X285756Y219170D01*
X286838Y219893D01*
X287560Y220974D01*
X287814Y222250D01*
X287560Y223526D01*
X286838Y224608D01*
X285756Y225330D01*
X284480Y225584D01*
X261168D01*
X260682Y226757D01*
X280818Y246893D01*
X281227Y246620D01*
D02*
G37*
G36*
X33203Y137343D02*
X34284Y136620D01*
X35560Y136366D01*
X36836Y136620D01*
X37917Y137343D01*
X38640Y138424D01*
X38894Y139700D01*
X38640Y140976D01*
X37917Y142058D01*
X36868Y143107D01*
X37354Y144280D01*
X59650D01*
Y138564D01*
X51410D01*
X50134Y138310D01*
X49053Y137587D01*
X46714Y135249D01*
X46181Y135355D01*
X45185Y136351D01*
X44450Y136656D01*
Y133350D01*
X41910D01*
Y136656D01*
X41175Y136351D01*
X40179Y135355D01*
X39973Y134858D01*
X34472Y129358D01*
X33750Y128276D01*
X33496Y127000D01*
Y110490D01*
X33750Y109214D01*
X34472Y108132D01*
X39553Y103053D01*
X40634Y102330D01*
X40720Y102313D01*
Y100274D01*
X39547Y99788D01*
X24924Y114411D01*
Y143961D01*
X26097Y144448D01*
X33203Y137343D01*
D02*
G37*
G36*
X82828Y130723D02*
X81525Y129420D01*
X71740D01*
Y125254D01*
X67310D01*
X66034Y125000D01*
X64953Y124277D01*
X61143Y120468D01*
X60420Y119386D01*
X60166Y118110D01*
Y112330D01*
X57000D01*
Y112330D01*
X55800Y112499D01*
Y112960D01*
X49530D01*
Y104920D01*
X46990D01*
Y112960D01*
X42039D01*
X41367Y113965D01*
X41684Y114420D01*
X55260D01*
Y129420D01*
X51594D01*
Y130699D01*
X52791Y131896D01*
X82341D01*
X82828Y130723D01*
D02*
G37*
G36*
X111760Y104690D02*
X117530D01*
Y107396D01*
X118700D01*
X119976Y107650D01*
X121058Y108372D01*
X122430Y109745D01*
X123950D01*
X128562Y105133D01*
X128850Y104940D01*
Y99854D01*
X111760D01*
X110484Y99600D01*
X109402Y98877D01*
X106862Y96338D01*
X106862Y96338D01*
X91651Y81126D01*
X67632D01*
X66357Y80873D01*
X65275Y80150D01*
X64552Y79068D01*
X64298Y77792D01*
X64537Y76595D01*
X64481Y76517D01*
X63272Y76063D01*
X49931Y89404D01*
X50557Y90574D01*
X50950Y90496D01*
X56460D01*
Y87790D01*
X62230D01*
Y93830D01*
X64770D01*
Y87790D01*
X70540D01*
Y90646D01*
X76200D01*
X77476Y90900D01*
X78558Y91622D01*
X81097Y94162D01*
X81820Y95244D01*
X82074Y96520D01*
Y96880D01*
X86280D01*
Y101586D01*
X87710D01*
Y96880D01*
X93980D01*
Y104920D01*
X96520D01*
Y96880D01*
X102790D01*
Y101586D01*
X104680D01*
X105956Y101840D01*
X107037Y102563D01*
X109165Y104690D01*
X109220D01*
Y110730D01*
X111760D01*
Y104690D01*
D02*
G37*
G36*
X67632Y74458D02*
X76507D01*
X88931Y62034D01*
Y59740D01*
X89124Y58769D01*
X89675Y57945D01*
X89721Y57914D01*
Y56386D01*
X89675Y56355D01*
X89124Y55532D01*
X88931Y54560D01*
Y50640D01*
X89124Y49668D01*
X89675Y48845D01*
X90498Y48295D01*
X90646Y48265D01*
Y40640D01*
X90900Y39364D01*
X91298Y38768D01*
X90311Y37959D01*
X80804Y47466D01*
Y58420D01*
X74136D01*
Y49078D01*
X72963Y48592D01*
X69374Y52181D01*
Y68580D01*
X69120Y69856D01*
X68397Y70938D01*
X65903Y73432D01*
X66357Y74641D01*
X66434Y74697D01*
X67632Y74458D01*
D02*
G37*
G36*
X118664Y37223D02*
X118586Y36830D01*
X118840Y35554D01*
X119563Y34472D01*
X130992Y23043D01*
X132074Y22320D01*
X133350Y22066D01*
X134620D01*
X135896Y22320D01*
X136978Y23043D01*
X137700Y24124D01*
X137954Y25400D01*
X137700Y26676D01*
X136978Y27757D01*
X135896Y28480D01*
X134759Y28707D01*
X129969Y33496D01*
X130495Y34766D01*
X148595D01*
X148624Y34618D01*
X149175Y33795D01*
X149302Y33710D01*
X148917Y32440D01*
X143670D01*
Y26670D01*
X149710D01*
Y24130D01*
X143670D01*
Y18525D01*
X109746D01*
X106539Y21732D01*
X107348Y22718D01*
X107944Y22320D01*
X109220Y22066D01*
X110496Y22320D01*
X111578Y23043D01*
X112300Y24124D01*
X112554Y25400D01*
Y32909D01*
X117494Y37849D01*
X118664Y37223D01*
D02*
G37*
%LPC*%
G36*
X300500Y336524D02*
X282300D01*
X281227Y336310D01*
X280317Y335703D01*
X279710Y334793D01*
X279496Y333720D01*
Y329220D01*
X279710Y328147D01*
X280317Y327237D01*
X281227Y326630D01*
X282300Y326416D01*
X300500D01*
X301573Y326630D01*
X302483Y327237D01*
X303090Y328147D01*
X303304Y329220D01*
Y333720D01*
X303090Y334793D01*
X302483Y335703D01*
X301573Y336310D01*
X300500Y336524D01*
D02*
G37*
G36*
X290130Y324375D02*
X282300D01*
X281016Y324119D01*
X279928Y323392D01*
X279201Y322304D01*
X278946Y321020D01*
Y320040D01*
X290130D01*
Y324375D01*
D02*
G37*
G36*
Y317500D02*
X278946D01*
Y316520D01*
X279201Y315236D01*
X279928Y314148D01*
X281016Y313421D01*
X282300Y313165D01*
X290130D01*
Y317500D01*
D02*
G37*
G36*
X318599Y393160D02*
X316401D01*
X314277Y392591D01*
X312373Y391492D01*
X310818Y389937D01*
X309719Y388033D01*
X309150Y385909D01*
Y383711D01*
X309719Y381587D01*
X310818Y379683D01*
X312373Y378128D01*
X314277Y377029D01*
X316401Y376460D01*
X318599D01*
X320723Y377029D01*
X322627Y378128D01*
X324182Y379683D01*
X325281Y381587D01*
X325850Y383711D01*
Y385909D01*
X325281Y388033D01*
X324182Y389937D01*
X322627Y391492D01*
X320723Y392591D01*
X318599Y393160D01*
D02*
G37*
G36*
X11259D02*
X9061D01*
X6937Y392591D01*
X5033Y391492D01*
X3478Y389937D01*
X2379Y388033D01*
X1810Y385909D01*
Y383711D01*
X2379Y381587D01*
X3478Y379683D01*
X5033Y378128D01*
X6937Y377029D01*
X9061Y376460D01*
X11259D01*
X13383Y377029D01*
X15287Y378128D01*
X16842Y379683D01*
X17941Y381587D01*
X18510Y383711D01*
Y385909D01*
X17941Y388033D01*
X16842Y389937D01*
X15287Y391492D01*
X13383Y392591D01*
X11259Y393160D01*
D02*
G37*
G36*
X91440Y329696D02*
Y327660D01*
X93476D01*
X93171Y328395D01*
X92175Y329391D01*
X91440Y329696D01*
D02*
G37*
G36*
X93476Y325120D02*
X91440D01*
Y323084D01*
X92175Y323389D01*
X93171Y324385D01*
X93476Y325120D01*
D02*
G37*
G36*
X48260Y312420D02*
X46224D01*
X46529Y311685D01*
X47525Y310689D01*
X48260Y310384D01*
Y312420D01*
D02*
G37*
G36*
X17107Y303990D02*
X15913D01*
X14811Y303533D01*
X13967Y302689D01*
X13510Y301587D01*
Y300393D01*
X13967Y299291D01*
X14811Y298447D01*
X15913Y297990D01*
X17107D01*
X18209Y298447D01*
X19053Y299291D01*
X19510Y300393D01*
Y301587D01*
X19053Y302689D01*
X18209Y303533D01*
X17107Y303990D01*
D02*
G37*
G36*
X299350Y104290D02*
X292080D01*
Y94020D01*
X299350D01*
Y104290D01*
D02*
G37*
G36*
X238256Y91440D02*
X236220D01*
Y89404D01*
X236955Y89709D01*
X237951Y90705D01*
X238256Y91440D01*
D02*
G37*
G36*
X233680D02*
X231644D01*
X231949Y90705D01*
X232945Y89709D01*
X233680Y89404D01*
Y91440D01*
D02*
G37*
G36*
X37710Y83740D02*
X30940D01*
Y77470D01*
X37710D01*
Y83740D01*
D02*
G37*
G36*
X25550Y34290D02*
X20780D01*
Y28520D01*
X25550D01*
Y34290D01*
D02*
G37*
G36*
X318599Y19780D02*
X316401D01*
X314277Y19211D01*
X312373Y18112D01*
X310818Y16557D01*
X309719Y14653D01*
X309150Y12529D01*
Y10331D01*
X309719Y8207D01*
X310818Y6303D01*
X312373Y4748D01*
X314277Y3649D01*
X316401Y3080D01*
X318599D01*
X320723Y3649D01*
X322627Y4748D01*
X324182Y6303D01*
X325281Y8207D01*
X325850Y10331D01*
Y12529D01*
X325281Y14653D01*
X324182Y16557D01*
X322627Y18112D01*
X320723Y19211D01*
X318599Y19780D01*
D02*
G37*
G36*
X11259D02*
X9061D01*
X6937Y19211D01*
X5033Y18112D01*
X3478Y16557D01*
X2379Y14653D01*
X1810Y12529D01*
Y10331D01*
X2379Y8207D01*
X3478Y6303D01*
X5033Y4748D01*
X6937Y3649D01*
X9061Y3080D01*
X11259D01*
X13383Y3649D01*
X15287Y4748D01*
X16842Y6303D01*
X17941Y8207D01*
X18510Y10331D01*
Y12529D01*
X17941Y14653D01*
X16842Y16557D01*
X15287Y18112D01*
X13383Y19211D01*
X11259Y19780D01*
D02*
G37*
G36*
X132080Y273816D02*
Y271780D01*
X134116D01*
X133811Y272515D01*
X132815Y273511D01*
X132080Y273816D01*
D02*
G37*
G36*
X129540D02*
X128805Y273511D01*
X127809Y272515D01*
X127504Y271780D01*
X129540D01*
Y273816D01*
D02*
G37*
G36*
X290130Y298974D02*
X282300D01*
X281016Y298719D01*
X279928Y297992D01*
X279201Y296904D01*
X278946Y295620D01*
Y294640D01*
X290130D01*
Y298974D01*
D02*
G37*
G36*
Y292100D02*
X278946D01*
Y291120D01*
X279201Y289836D01*
X279928Y288748D01*
X281016Y288021D01*
X282300Y287766D01*
X290130D01*
Y292100D01*
D02*
G37*
G36*
Y269764D02*
X282300D01*
X281016Y269509D01*
X279928Y268782D01*
X279201Y267694D01*
X278946Y266410D01*
Y265430D01*
X290130D01*
Y269764D01*
D02*
G37*
G36*
Y262890D02*
X278946D01*
Y261910D01*
X279201Y260626D01*
X279928Y259538D01*
X281016Y258811D01*
X282300Y258556D01*
X290130D01*
Y262890D01*
D02*
G37*
G36*
X196850Y220520D02*
X190580D01*
Y213750D01*
X196850D01*
Y220520D01*
D02*
G37*
G36*
Y211210D02*
X190580D01*
Y204440D01*
X196850D01*
Y211210D01*
D02*
G37*
G36*
X189110Y139076D02*
Y137040D01*
X191146D01*
X190841Y137775D01*
X189845Y138771D01*
X189110Y139076D01*
D02*
G37*
G36*
X290130Y244364D02*
X282300D01*
X281016Y244109D01*
X279928Y243382D01*
X279201Y242294D01*
X278946Y241010D01*
Y240030D01*
X290130D01*
Y244364D01*
D02*
G37*
G36*
X298450Y135386D02*
Y133350D01*
X300486D01*
X300181Y134085D01*
X299185Y135081D01*
X298450Y135386D01*
D02*
G37*
G36*
X283350Y141100D02*
X279080D01*
Y132080D01*
X283350D01*
Y141100D01*
D02*
G37*
G36*
X78740Y62996D02*
Y60960D01*
X80776D01*
X80471Y61695D01*
X79475Y62691D01*
X78740Y62996D01*
D02*
G37*
G36*
X76200D02*
X75465Y62691D01*
X74469Y61695D01*
X74164Y60960D01*
X76200D01*
Y62996D01*
D02*
G37*
%LPD*%
D30*
X247810Y130810D02*
D03*
X257810D02*
D03*
X267810D02*
D03*
X277810D02*
D03*
D31*
X234810Y105560D02*
D03*
X290810D02*
D03*
D35*
X242000Y331470D02*
D03*
Y318770D02*
D03*
Y306070D02*
D03*
Y293370D02*
D03*
X291400D02*
D03*
Y306070D02*
D03*
Y318770D02*
D03*
Y331470D02*
D03*
Y276860D02*
D03*
Y264160D02*
D03*
Y251460D02*
D03*
Y238760D02*
D03*
X242000D02*
D03*
Y251460D02*
D03*
Y264160D02*
D03*
Y276860D02*
D03*
D36*
X57040Y30370D02*
X59690Y33020D01*
X43180Y30370D02*
X57040D01*
X59690Y33020D02*
Y57150D01*
X50410Y66430D02*
X59690Y57150D01*
X38980Y66430D02*
X50410D01*
X66040Y50800D02*
X109220Y7620D01*
X66040Y50800D02*
Y68580D01*
X21590Y113030D02*
X66040Y68580D01*
X67632Y77792D02*
X78110D01*
X13970Y59690D02*
X40640D01*
X43180Y57150D01*
Y48370D02*
Y57150D01*
X109220Y7620D02*
X158750D01*
X77470Y46085D02*
Y59690D01*
Y46085D02*
X108364Y15191D01*
X21590Y113030D02*
Y288290D01*
X26820Y34560D02*
Y35560D01*
Y34560D02*
X29050Y32330D01*
X30050D01*
X32010Y30370D01*
X43180D01*
X38980Y66430D02*
Y76200D01*
X156800Y59010D02*
X193040Y95250D01*
X26670Y148590D02*
X35560Y139700D01*
X63500Y106830D02*
Y115570D01*
X50950Y93830D02*
X63500D01*
X48260Y96520D02*
X50950Y93830D01*
X48260Y96520D02*
Y104920D01*
X76200Y93980D02*
X78740Y96520D01*
Y104920D01*
X63650Y93980D02*
X76200D01*
X63500Y93830D02*
X63650Y93980D01*
X63500Y115570D02*
Y118110D01*
X67310Y121920D01*
X78740D01*
X78110Y77792D02*
X93032D01*
X78110Y77570D02*
Y77792D01*
X93430Y61700D02*
X93980D01*
X92250Y62880D02*
X93430Y61700D01*
X92250Y62880D02*
Y63430D01*
X78110Y77570D02*
X92250Y63430D01*
X93980Y40640D02*
Y52600D01*
X93032Y77792D02*
X109220Y93980D01*
X98047Y69960D02*
X98157Y69850D01*
X93980Y72390D02*
X96410Y69960D01*
X98047D01*
X98157Y69850D02*
X110490D01*
X121920Y58420D01*
X93980Y40640D02*
X109220Y25400D01*
X231140Y360680D02*
X280670D01*
Y373380D02*
X309880Y344170D01*
X233680Y347980D02*
X280670D01*
X13970Y148590D02*
Y156740D01*
X13820Y49530D02*
Y59540D01*
X13970Y59690D01*
X13820Y35560D02*
Y49530D01*
X26630Y64810D02*
X31710D01*
X21590Y69850D02*
X26630Y64810D01*
X21590Y69850D02*
Y75810D01*
X21980Y76200D01*
X26820Y35560D02*
Y49530D01*
X108364Y15191D02*
X156210D01*
X78740Y122420D02*
X82470Y126150D01*
X41910Y105410D02*
X47270D01*
X152400Y379730D02*
X200660D01*
X209550Y370840D01*
X153762Y366019D02*
X200638D01*
X209550Y366206D02*
X209738Y366019D01*
X209550Y366206D02*
Y370840D01*
X62230Y189230D02*
X80550Y207550D01*
X62230Y173990D02*
Y189230D01*
X129540Y38100D02*
X152930D01*
X125730Y41910D02*
X129540Y38100D01*
X36830Y110490D02*
X41910Y105410D01*
X36830Y110490D02*
Y127000D01*
X45370Y217520D02*
Y268890D01*
X40830Y209431D02*
X50835Y199425D01*
X40830Y273240D02*
X58420Y290830D01*
X45370Y217520D02*
X50800Y212090D01*
X36290Y207550D02*
Y380460D01*
X51392Y221790D02*
X51762Y221420D01*
X49910Y221790D02*
X51392D01*
X45370Y268890D02*
X62230Y285750D01*
X31750Y193040D02*
Y356870D01*
X51762Y221420D02*
X53430D01*
X36290Y207550D02*
X50800Y193040D01*
X26670Y148590D02*
Y360680D01*
X36290Y380460D02*
X40640Y384810D01*
X31750Y193040D02*
X43180Y181610D01*
X40830Y209431D02*
Y273240D01*
X36830Y127000D02*
X43180Y133350D01*
X113560Y93980D02*
X118180Y89360D01*
X118730D01*
X119910Y88180D01*
Y87630D02*
Y88180D01*
X109220Y93980D02*
X113560D01*
X165100Y78740D02*
X177800Y91440D01*
X129010Y81810D02*
X132080Y78740D01*
X165100D01*
X144780Y96520D02*
X184150D01*
X190500Y102870D01*
X129010Y81810D02*
Y87630D01*
X134624Y59010D02*
X156800D01*
X128270Y53340D02*
X160020D01*
X199200Y87440D02*
X204280D01*
X160020Y53340D02*
X165100D01*
X199200Y87440D01*
X134620Y96520D02*
X140970Y90170D01*
X145310D01*
X154410D02*
X162560D01*
X121460Y114040D02*
X122640Y115220D01*
X123190D01*
X109490Y110730D02*
X110490D01*
X118700D02*
X121460Y113490D01*
Y114040D01*
X123190Y115220D02*
X123740D01*
X110490Y110730D02*
X118700D01*
X109220Y93980D02*
X111760Y96520D01*
X134620D01*
X204470Y129010D02*
Y138430D01*
Y106680D02*
Y119910D01*
X199390Y99060D02*
X203200Y95250D01*
X199390Y99060D02*
Y113030D01*
X134620Y96520D02*
X144780D01*
X13970Y173992D02*
X13972Y173994D01*
X13970Y165840D02*
Y173992D01*
X213900Y170180D02*
X217710Y173990D01*
X223520Y149860D02*
Y200660D01*
Y149860D02*
X228600Y144780D01*
X213900Y97060D02*
Y170180D01*
X283210Y392430D02*
X314420Y361220D01*
Y129170D02*
Y361220D01*
X97954Y179375D02*
X156445D01*
X78150Y159571D02*
X97954Y179375D01*
X154400Y207550D02*
X161100Y200850D01*
X170180Y160170D02*
Y199191D01*
X161100Y167450D02*
Y200850D01*
X165640Y165569D02*
Y196770D01*
X158150Y164500D02*
X161100Y167450D01*
X154722Y183943D02*
X156210Y185431D01*
Y190500D01*
X96101Y183943D02*
X154722D01*
X168150Y158139D02*
X170180Y160170D01*
X163150Y163079D02*
X165640Y165569D01*
X157480Y211891D02*
X170180Y199191D01*
X180340Y181610D02*
Y186619D01*
X180150Y186810D02*
Y275780D01*
X171450Y284480D02*
X180150Y275780D01*
Y186810D02*
X180340Y186619D01*
X184690Y188690D02*
Y278860D01*
X189230Y229870D02*
X197340D01*
X197730Y230260D01*
X184690Y188690D02*
X190500Y182880D01*
X198120Y229870D02*
X199202Y230952D01*
X197730Y230260D02*
X198120Y229870D01*
X160020Y53340D02*
X172720Y40640D01*
X109220Y34290D02*
X128270Y53340D01*
X142590Y368070D02*
Y381656D01*
X142592Y381658D01*
X109590Y380100D02*
X115688Y386198D01*
X145932D01*
X152400Y379730D01*
X173441Y103369D02*
Y108101D01*
X176800Y111460D01*
X163955Y104405D02*
X169882D01*
X176800Y111460D02*
X177800D01*
X172180Y102107D02*
X173441Y103369D01*
X162560Y105800D02*
X163955Y104405D01*
X169882D02*
X172180Y102107D01*
X93150Y144780D02*
Y154758D01*
X93147Y154761D02*
X93150Y154758D01*
X88150Y156730D02*
X101630Y170210D01*
X88150Y144780D02*
Y156730D01*
X73150Y144780D02*
Y160991D01*
X83150Y158151D02*
X99749Y174750D01*
X151610D01*
X78150Y144780D02*
Y159571D01*
X73150Y160991D02*
X96101Y183943D01*
X83150Y144780D02*
Y158151D01*
X101630Y170210D02*
X144820D01*
X118110Y144820D02*
Y156210D01*
X123150Y158710D02*
X123190Y158750D01*
X123150Y144780D02*
Y158710D01*
X151610Y174750D02*
X151750Y174610D01*
X104710Y165670D02*
X142940D01*
X144820Y170210D02*
X144960Y170070D01*
X113230Y144860D02*
Y156010D01*
X103150Y144780D02*
Y155220D01*
X108150Y157703D02*
X108303Y157856D01*
X108150Y144780D02*
Y157703D01*
X98150Y144780D02*
Y159110D01*
X104710Y165670D01*
X174990Y157698D02*
X176478Y156210D01*
X174990Y157698D02*
Y254044D01*
X176478Y156210D02*
X177800D01*
X106172Y229870D02*
X141732D01*
X215090Y378530D02*
X217170Y376450D01*
X215090Y378530D02*
Y379080D01*
X213910Y380260D02*
X215090Y379080D01*
X213360Y380260D02*
X213910D01*
X217170Y376450D02*
X224790D01*
X290810Y108484D02*
Y117810D01*
Y108484D02*
X295540Y113214D01*
X298464D01*
X314420Y129170D01*
X290810Y105560D02*
Y108484D01*
X216578Y392430D02*
X283210D01*
X280140Y385550D02*
X280670Y386080D01*
X213360Y389360D02*
X213910D01*
X215090Y390540D01*
Y390942D01*
X216578Y392430D01*
X224790Y385550D02*
X280140D01*
X309880Y193737D02*
Y344170D01*
X225919Y375321D02*
X229132D01*
X231106Y373346D01*
X224790Y376450D02*
X225919Y375321D01*
X226546Y368786D02*
X231106Y373346D01*
X158750Y7620D02*
X162710Y11580D01*
Y25400D01*
X151940Y19461D02*
X156210Y15191D01*
X151940Y19461D02*
Y23170D01*
X149710Y25400D02*
X151940Y23170D01*
X267672Y119482D02*
X267810Y119620D01*
Y130810D01*
X234810Y105560D02*
X290810D01*
X234810Y92850D02*
X234950Y92710D01*
X234810Y92850D02*
Y105560D01*
X190500Y109485D02*
Y116100D01*
Y102870D02*
Y109485D01*
X193305Y106680D02*
X194310D01*
X190500Y109485D02*
X193305Y106680D01*
X124920Y113490D02*
X130920Y107490D01*
X124920Y113490D02*
Y114040D01*
X123740Y115220D02*
X124920Y114040D01*
X126350Y126930D02*
X129766D01*
X133595Y130760D01*
X123740Y124320D02*
X126350Y126930D01*
X123190Y124320D02*
X123740D01*
X113314Y125960D02*
Y129982D01*
X114802Y131470D02*
X127885D01*
X113314Y129982D02*
X114802Y131470D01*
X127885D02*
X132920Y136505D01*
Y144550D01*
X97060Y123730D02*
X111084D01*
X95250Y104920D02*
X104680D01*
X107260Y107500D01*
Y108500D01*
X109490Y110730D01*
X111084Y123730D02*
X113314Y125960D01*
X130920Y107490D02*
X133660D01*
X135890Y105260D01*
X133595Y130760D02*
X137110D01*
X143150Y136800D01*
X132920Y144550D02*
X133150Y144780D01*
X103061Y136010D02*
X126004D01*
X127920Y137926D01*
Y144550D01*
X247650Y119380D02*
X247810Y119540D01*
Y130810D01*
X223520Y76200D02*
Y123190D01*
X219940Y238650D02*
X224420Y234170D01*
X218440Y124530D02*
X242030Y148120D01*
X218440Y55880D02*
Y124530D01*
X223520Y123190D02*
X247650Y147320D01*
Y224860D01*
X204280Y87440D02*
X213900Y97060D01*
X242030Y148120D02*
Y216560D01*
X223520Y76200D02*
X245110Y54610D01*
X257810Y119380D02*
Y130810D01*
X165100Y263934D02*
X174990Y254044D01*
X180340Y283210D02*
X184690Y278860D01*
X174638Y135770D02*
X187840D01*
X261080Y238291D02*
Y304070D01*
X247650Y224860D02*
X261080Y238291D01*
X252810Y312340D02*
X261080Y304070D01*
X212170Y312340D02*
X252810D01*
X279400Y306070D02*
X291400D01*
X260270Y325200D02*
X279400Y306070D01*
X260350Y334010D02*
X268005Y326355D01*
Y326355D02*
Y326355D01*
X231235Y325200D02*
X260270D01*
X256540Y299720D02*
Y302190D01*
Y255270D02*
Y299720D01*
X259080Y217170D02*
X274460D01*
X274860Y217570D01*
X259080Y222250D02*
X284480D01*
X259080Y212090D02*
X279400D01*
X304800Y266700D02*
Y294640D01*
Y316230D01*
X303530Y293370D02*
X304800Y294640D01*
X302260Y318770D02*
X304800Y316230D01*
X291400Y318770D02*
X302260D01*
X291400Y293370D02*
X303530D01*
X252730Y251460D02*
X256540Y255270D01*
X242000Y251460D02*
X252730D01*
X203779Y320731D02*
X212170Y312340D01*
X252695Y306035D02*
X256540Y302190D01*
X242000Y306070D02*
X242035Y306035D01*
X252695D01*
X177794Y339084D02*
X193040Y354330D01*
X201190D01*
X170174Y339084D02*
X177794D01*
X290830Y117830D02*
Y125730D01*
X290810Y117810D02*
X290830Y117830D01*
Y125730D02*
X297180Y132080D01*
X62230Y326390D02*
X90170D01*
X49530Y313690D02*
X62230Y326390D01*
X80200Y390970D02*
X181690D01*
X189190Y398470D01*
X109590Y370070D02*
Y380100D01*
X131590Y352280D02*
Y381540D01*
X109590Y351317D02*
Y370070D01*
X219940Y238650D02*
X242030Y216560D01*
X224363Y212480D02*
X232147Y204696D01*
X198120Y212480D02*
X224363D01*
X226060Y218440D02*
X237490Y207010D01*
X217820Y218440D02*
X226060D01*
X207660Y228600D02*
X217820Y218440D01*
X207660Y228600D02*
Y236334D01*
X201930Y242064D02*
X207660Y236334D01*
X78670Y212090D02*
X157480D01*
Y211891D02*
Y212090D01*
X80550Y207550D02*
X154400D01*
X59690Y271780D02*
X69850D01*
X65590Y354780D02*
X79470Y340900D01*
X171450Y284480D02*
Y317500D01*
X165100Y323850D02*
X171450Y317500D01*
X139559Y323850D02*
X165100D01*
Y263934D02*
Y314960D01*
X128129Y335280D02*
X139559Y323850D01*
X120650Y335280D02*
X128129D01*
X170213Y328897D02*
X180340Y318770D01*
X170180Y328930D02*
X170213Y328897D01*
X187862D01*
X65590Y354780D02*
Y368070D01*
X140532Y329298D02*
X169812D01*
X128930Y340900D02*
X140532Y329298D01*
X169812D02*
X170180Y328930D01*
X79470Y340900D02*
X128930D01*
X130810Y345440D02*
X142412Y333838D01*
X86431Y345440D02*
X130810D01*
X76200Y367680D02*
X76590Y368070D01*
X76200Y355671D02*
Y367680D01*
Y355671D02*
X86431Y345440D01*
X98361Y356916D02*
Y367840D01*
X120650Y351790D02*
Y368010D01*
X120590Y368070D02*
X120650Y368010D01*
X142412Y333838D02*
X170008D01*
X131590Y352280D02*
X144786Y339084D01*
X170174D01*
X51960Y382740D02*
X57690Y388470D01*
X73690Y259970D02*
X78920Y265200D01*
X51018Y382740D02*
X51960D01*
X87590Y370070D02*
X87630Y370110D01*
X49530Y381252D02*
X51018Y382740D01*
X99714Y259470D02*
X130190D01*
X49530Y313690D02*
Y381252D01*
X57690Y388470D02*
Y390970D01*
X170380Y344438D02*
Y349401D01*
X73690Y259470D02*
Y259970D01*
X130690Y259470D02*
X130810Y259590D01*
X153762Y366019D02*
X170380Y349401D01*
X78920Y265200D02*
X81195D01*
X57690Y390970D02*
X80200D01*
X87630Y370110D02*
Y383540D01*
X151263Y368518D02*
X153762Y366019D01*
X80200Y390970D02*
X87630Y383540D01*
X130810Y259590D02*
Y270510D01*
X98361Y367840D02*
X98590Y368070D01*
X93945Y265240D02*
X99714Y259470D01*
X81195Y265200D02*
X81236Y265240D01*
X143038Y368518D02*
X151263D01*
X81236Y265240D02*
X93945D01*
X109590Y351317D02*
X109607Y351301D01*
X142590Y368070D02*
X143038Y368518D01*
X144960Y170070D02*
X156100D01*
X156210Y170180D01*
X147455Y159894D02*
X148150Y159199D01*
Y144780D02*
Y159199D01*
X180340Y283210D02*
Y318770D01*
X165608Y212834D02*
X170450Y207992D01*
Y207452D02*
Y207992D01*
X97740Y130690D02*
X103061Y136010D01*
X82970Y126150D02*
X87510Y130690D01*
X97740D01*
X95860Y135230D02*
X98126Y137496D01*
Y144756D01*
X51410Y135230D02*
X95860D01*
X98126Y144756D02*
X98150Y144780D01*
X82470Y126150D02*
X82970D01*
X185420Y299720D02*
X190500Y294640D01*
Y278130D02*
Y294640D01*
Y278130D02*
X195580Y273050D01*
X201540D02*
X201930Y272660D01*
X195580Y273050D02*
X201540D01*
X185420Y306070D02*
X199390D01*
X203200Y302260D01*
X173150Y137258D02*
X174638Y135770D01*
X172390Y131230D02*
X183920D01*
X189950Y125200D01*
X173150Y137258D02*
Y144780D01*
X54610Y248390D02*
Y266700D01*
X59690Y271780D01*
X62230Y285750D02*
X135890D01*
X144780Y276860D01*
X58420Y290830D02*
X147014D01*
X158394Y279450D01*
X43180Y181610D02*
X50800D01*
X48594Y187043D02*
X53693D01*
X57690Y191040D01*
X53430Y221420D02*
X54610Y220240D01*
X210290Y354330D02*
Y365466D01*
X201930Y242064D02*
Y255660D01*
X163150Y144780D02*
Y163079D01*
X168150Y144780D02*
Y158139D01*
Y135470D02*
Y144780D01*
X254000Y222250D02*
Y224790D01*
X280670Y251460D01*
X291400D01*
X218440Y238650D02*
X219940D01*
X304800Y241300D02*
Y266700D01*
X291400Y238760D02*
X302260D01*
X304800Y241300D01*
X285085Y168942D02*
X309880Y193737D01*
X291400Y232869D02*
Y238760D01*
Y232869D02*
X291431Y232837D01*
X245110Y54610D02*
X267970D01*
X203779Y320731D02*
Y327907D01*
X203634Y328053D02*
X203779Y327907D01*
X228456Y327979D02*
X231235Y325200D01*
X221090Y294640D02*
X222360Y293370D01*
X242000D01*
X203200Y294750D02*
Y302260D01*
X203090Y294640D02*
X203200Y294750D01*
X218184Y256906D02*
X219684D01*
X233420Y240490D02*
X235150Y238760D01*
X233420Y240490D02*
Y241670D01*
X224420Y250670D02*
Y252170D01*
X235150Y238760D02*
X242000D01*
X224420Y250670D02*
X233420Y241670D01*
X219684Y256906D02*
X224420Y252170D01*
X177800Y45720D02*
Y58420D01*
X172720Y40640D02*
X185420D01*
X279540Y125488D02*
X283132D01*
X277810Y127218D02*
Y130810D01*
X283132Y125488D02*
X290810Y117810D01*
X277810Y127218D02*
X279540Y125488D01*
X197420Y392740D02*
X200800Y389360D01*
X194920Y392740D02*
X197420D01*
X200800Y389360D02*
X213360D01*
X189190Y398470D02*
X194920Y392740D01*
X210148Y354188D02*
X210290Y354330D01*
X210148Y342083D02*
Y354188D01*
X187862Y328897D02*
X199318Y340353D01*
X201048Y341533D02*
Y342083D01*
X199868Y340353D02*
X201048Y341533D01*
X199318Y340353D02*
X199868D01*
X180340Y25400D02*
X185420Y30480D01*
X162710Y25400D02*
X180340D01*
X141732Y229870D02*
X166370D01*
X165608Y212834D02*
Y220370D01*
X130048Y239370D02*
X165608D01*
X144780Y96520D02*
X148590Y100330D01*
X133350Y25400D02*
X134620D01*
X121920Y36830D02*
X133350Y25400D01*
X109220D02*
Y34290D01*
X162030Y26080D02*
Y38100D01*
X148590Y100330D02*
Y116100D01*
X137508Y119878D02*
X142580D01*
X144660Y121820D02*
X148040Y125200D01*
X144523Y121820D02*
X144660D01*
X142580Y119878D02*
X144523Y121820D01*
X135890Y118260D02*
X137508Y119878D01*
X148040Y125200D02*
X148590D01*
X226546Y355114D02*
X233680Y347980D01*
X226546Y355114D02*
Y368786D01*
X302260Y264160D02*
X304800Y266700D01*
X291400Y264160D02*
X302260D01*
X218184Y256906D02*
X218440Y256650D01*
X220634Y328053D02*
X220707Y327979D01*
X228456D01*
X57690Y191110D02*
X78670Y212090D01*
X57690Y191040D02*
Y191110D01*
X73372Y193951D02*
X77540Y198120D01*
X123172D01*
X80550Y193040D02*
X113208D01*
X67310Y220800D02*
Y226060D01*
Y220800D02*
X67740Y220370D01*
X54610Y229340D02*
X64030D01*
X67310Y226060D01*
X54610Y229340D02*
Y239290D01*
X67740Y239370D02*
Y246902D01*
X66252Y248390D02*
X67740Y246902D01*
X54610Y248390D02*
X66252D01*
X130048Y239370D02*
Y258328D01*
X78390Y220686D02*
X129732D01*
X130048Y220370D01*
X89740Y229870D02*
X106172D01*
X95112Y202986D02*
X133215D01*
X86415Y188483D02*
X103209D01*
X133150Y144780D02*
Y158636D01*
X133220Y158707D01*
X168150Y135470D02*
X172390Y131230D01*
X158150Y144780D02*
Y164500D01*
X143150Y136800D02*
Y144780D01*
X48260Y132080D02*
X51410Y135230D01*
X127920Y144550D02*
X128150Y144780D01*
X189950Y125200D02*
X190500D01*
X113150Y144780D02*
X113230Y144860D01*
X118110Y144820D02*
X118150Y144780D01*
X138150D02*
Y158470D01*
X48260Y121920D02*
Y132080D01*
X150320Y126930D02*
X153150Y129760D01*
X150320Y126380D02*
Y126930D01*
X149140Y125200D02*
X150320Y126380D01*
X148590Y125200D02*
X149140D01*
X153150Y129760D02*
Y144780D01*
X163150Y123390D02*
Y144780D01*
X162560Y122800D02*
X163150Y123390D01*
X162560Y122800D02*
X172745D01*
X95250Y121920D02*
X97060Y123730D01*
X78740Y104920D02*
X95250D01*
D37*
X67632Y77792D02*
D03*
X77470Y59690D02*
D03*
X38980Y66430D02*
D03*
X193040Y95250D02*
D03*
X35560Y139700D02*
D03*
X63500Y115570D02*
D03*
X93980Y72390D02*
D03*
X280670Y373380D02*
D03*
Y360680D02*
D03*
Y347980D02*
D03*
X13970Y59690D02*
D03*
X31710Y64810D02*
D03*
X62230Y173990D02*
D03*
X125730Y41910D02*
D03*
X121920Y58420D02*
D03*
X49910Y221790D02*
D03*
X13970Y148590D02*
D03*
X109220Y25400D02*
D03*
Y93980D02*
D03*
X156210Y15191D02*
D03*
X134624Y59010D02*
D03*
X134620Y25400D02*
D03*
X177800Y91440D02*
D03*
X162560Y90170D02*
D03*
X228600Y144780D02*
D03*
X204470Y106680D02*
D03*
Y138430D02*
D03*
X13972Y173994D02*
D03*
X180340Y181610D02*
D03*
X156445Y179375D02*
D03*
X165640Y196770D02*
D03*
X156210Y190500D02*
D03*
X189230Y229870D02*
D03*
X142592Y381658D02*
D03*
X172180Y102107D02*
D03*
X93147Y154761D02*
D03*
X118110Y156210D02*
D03*
X123190Y158750D02*
D03*
X113230Y156010D02*
D03*
X103150Y155220D02*
D03*
X108303Y157856D02*
D03*
X177800Y156210D02*
D03*
X280670Y386080D02*
D03*
X16510Y300990D02*
D03*
X21590Y288290D02*
D03*
X267672Y119482D02*
D03*
X203200Y95250D02*
D03*
X199390Y113030D02*
D03*
X194310Y106680D02*
D03*
X247650Y119380D02*
D03*
X257810D02*
D03*
X190500Y182880D02*
D03*
X187840Y135770D02*
D03*
X260350Y334010D02*
D03*
X268005Y326355D02*
D03*
X256540Y299720D02*
D03*
X274860Y217570D02*
D03*
X284480Y222250D02*
D03*
X259080Y212090D02*
D03*
Y217170D02*
D03*
Y222250D02*
D03*
X297180Y132080D02*
D03*
X90170Y326390D02*
D03*
X131590Y381540D02*
D03*
X109607Y351301D02*
D03*
X50800Y193040D02*
D03*
X86361Y188537D02*
D03*
X151750Y174610D02*
D03*
X48594Y187043D02*
D03*
X156210Y170180D02*
D03*
X138150Y158470D02*
D03*
X130810Y270510D02*
D03*
X80550Y193040D02*
D03*
X69850Y271780D02*
D03*
X43180Y133350D02*
D03*
X50800Y181610D02*
D03*
X217710Y173990D02*
D03*
X223520Y200660D02*
D03*
X73372Y193951D02*
D03*
X50835Y199425D02*
D03*
X147455Y159894D02*
D03*
X142940Y165670D02*
D03*
X121920Y36830D02*
D03*
X50800Y212090D02*
D03*
X49530Y313690D02*
D03*
X254000Y222250D02*
D03*
X234950Y92710D02*
D03*
X165100Y314960D02*
D03*
X98361Y356916D02*
D03*
X120650Y335280D02*
D03*
Y351790D02*
D03*
X170008Y333838D02*
D03*
X170380Y344438D02*
D03*
X170450Y207452D02*
D03*
X185420Y299720D02*
D03*
Y306070D02*
D03*
X26670Y360680D02*
D03*
X31750Y356870D02*
D03*
X40640Y384810D02*
D03*
X232147Y204696D02*
D03*
X237490Y207010D02*
D03*
X291431Y232837D02*
D03*
X218440Y55880D02*
D03*
X267970Y54610D02*
D03*
X279400Y212090D02*
D03*
X185420Y40640D02*
D03*
Y30480D02*
D03*
X177800Y58420D02*
D03*
Y45720D02*
D03*
X170174Y339084D02*
D03*
X170180Y328930D02*
D03*
X166370Y229870D02*
D03*
X285085Y168942D02*
D03*
X231140Y373346D02*
D03*
Y360680D02*
D03*
X144780Y276860D02*
D03*
X158394Y279450D02*
D03*
X123208Y198156D02*
D03*
X133220Y202991D02*
D03*
X113208Y193040D02*
D03*
X95112Y202986D02*
D03*
X103230Y188503D02*
D03*
X78390Y220686D02*
D03*
X133220Y158707D02*
D03*
D38*
X10160Y11430D02*
D03*
X317500D02*
D03*
Y384810D02*
D03*
X10160D02*
D03*
D39*
X93980Y61700D02*
D03*
Y52600D02*
D03*
X204470Y119910D02*
D03*
Y129010D02*
D03*
X13970Y156740D02*
D03*
Y165840D02*
D03*
X123190Y115220D02*
D03*
Y124320D02*
D03*
X213360Y389360D02*
D03*
Y380260D02*
D03*
X224790Y376450D02*
D03*
Y385550D02*
D03*
X54610Y248390D02*
D03*
Y239290D02*
D03*
Y229340D02*
D03*
Y220240D02*
D03*
X190500Y125200D02*
D03*
Y116100D02*
D03*
X148590Y125200D02*
D03*
Y116100D02*
D03*
D40*
X13820Y35560D02*
D03*
X26820D02*
D03*
Y49530D02*
D03*
X13820D02*
D03*
X162710Y25400D02*
D03*
X149710D02*
D03*
D41*
X63500Y106830D02*
D03*
Y93830D02*
D03*
X110490Y123730D02*
D03*
Y110730D02*
D03*
X177800Y111460D02*
D03*
Y124460D02*
D03*
X135890Y105260D02*
D03*
Y118260D02*
D03*
D42*
X38980Y76200D02*
D03*
X21980D02*
D03*
X203634Y328053D02*
D03*
X220634D02*
D03*
D43*
X43180Y30370D02*
D03*
Y48370D02*
D03*
X218440Y238650D02*
D03*
Y256650D02*
D03*
D44*
X129010Y87630D02*
D03*
X119910D02*
D03*
X145310Y90170D02*
D03*
X154410D02*
D03*
X201190Y354330D02*
D03*
X210290D02*
D03*
X200638Y366019D02*
D03*
X209738D02*
D03*
X201048Y342083D02*
D03*
X210148D02*
D03*
X152930Y38100D02*
D03*
X162030D02*
D03*
D45*
X142590Y368070D02*
D03*
X131590Y364070D02*
D03*
X120590Y368070D02*
D03*
X109590Y370070D02*
D03*
X98590Y368070D02*
D03*
X87590Y370070D02*
D03*
X76590Y368070D02*
D03*
X65590D02*
D03*
D46*
X87590Y257220D02*
D03*
D47*
X73690Y259470D02*
D03*
X130690D02*
D03*
D48*
X57690Y390970D02*
D03*
X189190Y400970D02*
D03*
D49*
X198120Y212480D02*
D03*
Y229480D02*
D03*
X201930Y272660D02*
D03*
Y255660D02*
D03*
X48260Y104920D02*
D03*
Y121920D02*
D03*
X78740D02*
D03*
Y104920D02*
D03*
X95250Y121920D02*
D03*
Y104920D02*
D03*
X162560Y122800D02*
D03*
Y105800D02*
D03*
D50*
X165608Y239370D02*
D03*
Y220370D02*
D03*
X141732Y229870D02*
D03*
X106172D02*
D03*
X130048Y220370D02*
D03*
Y239370D02*
D03*
D51*
X203090Y294640D02*
D03*
X221090D02*
D03*
D52*
X89740Y229870D02*
D03*
X67740Y239370D02*
D03*
Y220370D02*
D03*
D53*
X63150Y144780D02*
D03*
X68150D02*
D03*
X73150D02*
D03*
X78150D02*
D03*
X83150D02*
D03*
X88150D02*
D03*
X93150D02*
D03*
X98150D02*
D03*
X103150D02*
D03*
X108150D02*
D03*
X113150D02*
D03*
X118150D02*
D03*
X123150D02*
D03*
X128150D02*
D03*
X133150D02*
D03*
X138150D02*
D03*
X143150D02*
D03*
X148150D02*
D03*
X153150D02*
D03*
X158150D02*
D03*
X163150D02*
D03*
X168150D02*
D03*
X173150D02*
D03*
X178150D02*
D03*
D54*
X194850Y161780D02*
D03*
X46450D02*
D03*
M02*
