G04*
G04 #@! TF.GenerationSoftware,Altium Limited,Altium Designer,21.2.1 (34)*
G04*
G04 Layer_Color=16711935*
%FSLAX44Y44*%
%MOMM*%
G71*
G04*
G04 #@! TF.SameCoordinates,32138B9C-427C-45C4-8288-55465CA957BF*
G04*
G04*
G04 #@! TF.FilePolarity,Negative*
G04*
G01*
G75*
%ADD16R,0.8032X1.7532*%
%ADD17R,1.4032X2.0032*%
G04:AMPARAMS|DCode=22|XSize=2.1732mm|YSize=0.8032mm|CornerRadius=0.1766mm|HoleSize=0mm|Usage=FLASHONLY|Rotation=0.000|XOffset=0mm|YOffset=0mm|HoleType=Round|Shape=RoundedRectangle|*
%AMROUNDEDRECTD22*
21,1,2.1732,0.4500,0,0,0.0*
21,1,1.8200,0.8032,0,0,0.0*
1,1,0.3532,0.9100,-0.2250*
1,1,0.3532,-0.9100,-0.2250*
1,1,0.3532,-0.9100,0.2250*
1,1,0.3532,0.9100,0.2250*
%
%ADD22ROUNDEDRECTD22*%
%ADD23C,0.4032*%
%ADD24C,1.4732*%
%ADD50R,1.1176X0.4826*%
G04:AMPARAMS|DCode=55|XSize=0.6932mm|YSize=0.8032mm|CornerRadius=0.1506mm|HoleSize=0mm|Usage=FLASHONLY|Rotation=90.000|XOffset=0mm|YOffset=0mm|HoleType=Round|Shape=RoundedRectangle|*
%AMROUNDEDRECTD55*
21,1,0.6932,0.5020,0,0,90.0*
21,1,0.3920,0.8032,0,0,90.0*
1,1,0.3012,0.2510,0.1960*
1,1,0.3012,0.2510,-0.1960*
1,1,0.3012,-0.2510,-0.1960*
1,1,0.3012,-0.2510,0.1960*
%
%ADD55ROUNDEDRECTD55*%
%ADD56R,0.9032X1.1032*%
%ADD57R,1.1032X0.9032*%
%ADD58R,1.3032X1.2032*%
%ADD59R,1.6532X1.3532*%
G04:AMPARAMS|DCode=60|XSize=0.6932mm|YSize=0.8032mm|CornerRadius=0.1506mm|HoleSize=0mm|Usage=FLASHONLY|Rotation=0.000|XOffset=0mm|YOffset=0mm|HoleType=Round|Shape=RoundedRectangle|*
%AMROUNDEDRECTD60*
21,1,0.6932,0.5020,0,0,0.0*
21,1,0.3920,0.8032,0,0,0.0*
1,1,0.3012,0.1960,-0.2510*
1,1,0.3012,-0.1960,-0.2510*
1,1,0.3012,-0.1960,0.2510*
1,1,0.3012,0.1960,0.2510*
%
%ADD60ROUNDEDRECTD60*%
%ADD61R,1.0032X1.7032*%
%ADD62R,1.2032X1.1532*%
%ADD63R,1.5032X1.6032*%
%ADD64R,1.6032X2.1032*%
%ADD65R,1.2032X1.3032*%
%ADD66R,1.3532X1.6532*%
%ADD67R,1.6032X1.2032*%
%ADD68R,0.5032X1.3032*%
%ADD69R,2.5032X3.3032*%
D16*
X247810Y130810D02*
D03*
X257810D02*
D03*
X267810D02*
D03*
X277810D02*
D03*
D17*
X234810Y105560D02*
D03*
X290810D02*
D03*
D22*
X242000Y331470D02*
D03*
Y318770D02*
D03*
Y306070D02*
D03*
Y293370D02*
D03*
X291400D02*
D03*
Y306070D02*
D03*
Y318770D02*
D03*
Y331470D02*
D03*
Y276860D02*
D03*
Y264160D02*
D03*
Y251460D02*
D03*
Y238760D02*
D03*
X242000D02*
D03*
Y251460D02*
D03*
Y264160D02*
D03*
Y276860D02*
D03*
D23*
X67632Y77792D02*
D03*
X77470Y59690D02*
D03*
X38980Y66430D02*
D03*
X193040Y95250D02*
D03*
X35560Y139700D02*
D03*
X63500Y115570D02*
D03*
X93980Y72390D02*
D03*
X280670Y373380D02*
D03*
Y360680D02*
D03*
Y347980D02*
D03*
X13970Y59690D02*
D03*
X31710Y64810D02*
D03*
X62230Y173990D02*
D03*
X125730Y41910D02*
D03*
X121920Y58420D02*
D03*
X49910Y221790D02*
D03*
X13970Y148590D02*
D03*
X109220Y25400D02*
D03*
Y93980D02*
D03*
X156210Y15191D02*
D03*
X134624Y59010D02*
D03*
X134620Y25400D02*
D03*
X177800Y91440D02*
D03*
X162560Y90170D02*
D03*
X228600Y144780D02*
D03*
X204470Y106680D02*
D03*
Y138430D02*
D03*
X13972Y173994D02*
D03*
X180340Y181610D02*
D03*
X156445Y179375D02*
D03*
X165640Y196770D02*
D03*
X156210Y190500D02*
D03*
X189230Y229870D02*
D03*
X142592Y381658D02*
D03*
X172180Y102107D02*
D03*
X93147Y154761D02*
D03*
X118110Y156210D02*
D03*
X123190Y158750D02*
D03*
X113230Y156010D02*
D03*
X103150Y155220D02*
D03*
X108303Y157856D02*
D03*
X177800Y156210D02*
D03*
X280670Y386080D02*
D03*
X16510Y300990D02*
D03*
X21590Y288290D02*
D03*
X267672Y119482D02*
D03*
X203200Y95250D02*
D03*
X199390Y113030D02*
D03*
X194310Y106680D02*
D03*
X247650Y119380D02*
D03*
X257810D02*
D03*
X190500Y182880D02*
D03*
X187840Y135770D02*
D03*
X260350Y334010D02*
D03*
X268005Y326355D02*
D03*
X256540Y299720D02*
D03*
X274860Y217570D02*
D03*
X284480Y222250D02*
D03*
X259080Y212090D02*
D03*
Y217170D02*
D03*
Y222250D02*
D03*
X297180Y132080D02*
D03*
X90170Y326390D02*
D03*
X131590Y381540D02*
D03*
X109607Y351301D02*
D03*
X50800Y193040D02*
D03*
X86361Y188537D02*
D03*
X151750Y174610D02*
D03*
X48594Y187043D02*
D03*
X156210Y170180D02*
D03*
X138150Y158470D02*
D03*
X130810Y270510D02*
D03*
X80550Y193040D02*
D03*
X69850Y271780D02*
D03*
X43180Y133350D02*
D03*
X50800Y181610D02*
D03*
X217710Y173990D02*
D03*
X223520Y200660D02*
D03*
X73372Y193951D02*
D03*
X50835Y199425D02*
D03*
X147455Y159894D02*
D03*
X142940Y165670D02*
D03*
X121920Y36830D02*
D03*
X50800Y212090D02*
D03*
X49530Y313690D02*
D03*
X254000Y222250D02*
D03*
X234950Y92710D02*
D03*
X165100Y314960D02*
D03*
X98361Y356916D02*
D03*
X120650Y335280D02*
D03*
Y351790D02*
D03*
X170008Y333838D02*
D03*
X170380Y344438D02*
D03*
X170450Y207452D02*
D03*
X185420Y299720D02*
D03*
Y306070D02*
D03*
X26670Y360680D02*
D03*
X31750Y356870D02*
D03*
X40640Y384810D02*
D03*
X232147Y204696D02*
D03*
X237490Y207010D02*
D03*
X291431Y232837D02*
D03*
X218440Y55880D02*
D03*
X267970Y54610D02*
D03*
X279400Y212090D02*
D03*
X185420Y40640D02*
D03*
Y30480D02*
D03*
X177800Y58420D02*
D03*
Y45720D02*
D03*
X170174Y339084D02*
D03*
X170180Y328930D02*
D03*
X166370Y229870D02*
D03*
X285085Y168942D02*
D03*
X231140Y373346D02*
D03*
Y360680D02*
D03*
X144780Y276860D02*
D03*
X158394Y279450D02*
D03*
X123208Y198156D02*
D03*
X133220Y202991D02*
D03*
X113208Y193040D02*
D03*
X95112Y202986D02*
D03*
X103230Y188503D02*
D03*
X78390Y220686D02*
D03*
X133220Y158707D02*
D03*
D24*
X10160Y11430D02*
D03*
X317500D02*
D03*
Y384810D02*
D03*
X10160D02*
D03*
D50*
X165608Y239370D02*
D03*
Y220370D02*
D03*
X141732Y229870D02*
D03*
X106172D02*
D03*
X130048Y220370D02*
D03*
Y239370D02*
D03*
D55*
X93980Y61700D02*
D03*
Y52600D02*
D03*
X204470Y119910D02*
D03*
Y129010D02*
D03*
X13970Y156740D02*
D03*
Y165840D02*
D03*
X123190Y115220D02*
D03*
Y124320D02*
D03*
X213360Y389360D02*
D03*
Y380260D02*
D03*
X224790Y376450D02*
D03*
Y385550D02*
D03*
X54610Y248390D02*
D03*
Y239290D02*
D03*
Y229340D02*
D03*
Y220240D02*
D03*
X190500Y125200D02*
D03*
Y116100D02*
D03*
X148590Y125200D02*
D03*
Y116100D02*
D03*
D56*
X13820Y35560D02*
D03*
X26820D02*
D03*
Y49530D02*
D03*
X13820D02*
D03*
X162710Y25400D02*
D03*
X149710D02*
D03*
D57*
X63500Y106830D02*
D03*
Y93830D02*
D03*
X110490Y123730D02*
D03*
Y110730D02*
D03*
X177800Y111460D02*
D03*
Y124460D02*
D03*
X135890Y105260D02*
D03*
Y118260D02*
D03*
D58*
X38980Y76200D02*
D03*
X21980D02*
D03*
X203634Y328053D02*
D03*
X220634D02*
D03*
D59*
X43180Y30370D02*
D03*
Y48370D02*
D03*
X218440Y238650D02*
D03*
Y256650D02*
D03*
D60*
X129010Y87630D02*
D03*
X119910D02*
D03*
X145310Y90170D02*
D03*
X154410D02*
D03*
X201190Y354330D02*
D03*
X210290D02*
D03*
X200638Y366019D02*
D03*
X209738D02*
D03*
X201048Y342083D02*
D03*
X210148D02*
D03*
X152930Y38100D02*
D03*
X162030D02*
D03*
D61*
X142590Y368070D02*
D03*
X131590Y364070D02*
D03*
X120590Y368070D02*
D03*
X109590Y370070D02*
D03*
X98590Y368070D02*
D03*
X87590Y370070D02*
D03*
X76590Y368070D02*
D03*
X65590D02*
D03*
D62*
X87590Y257220D02*
D03*
D63*
X73690Y259470D02*
D03*
X130690D02*
D03*
D64*
X57690Y390970D02*
D03*
X189190Y400970D02*
D03*
D65*
X198120Y212480D02*
D03*
Y229480D02*
D03*
X201930Y272660D02*
D03*
Y255660D02*
D03*
X48260Y104920D02*
D03*
Y121920D02*
D03*
X78740D02*
D03*
Y104920D02*
D03*
X95250Y121920D02*
D03*
Y104920D02*
D03*
X162560Y122800D02*
D03*
Y105800D02*
D03*
D66*
X203090Y294640D02*
D03*
X221090D02*
D03*
D67*
X89740Y229870D02*
D03*
X67740Y239370D02*
D03*
Y220370D02*
D03*
D68*
X63150Y144780D02*
D03*
X68150D02*
D03*
X73150D02*
D03*
X78150D02*
D03*
X83150D02*
D03*
X88150D02*
D03*
X93150D02*
D03*
X98150D02*
D03*
X103150D02*
D03*
X108150D02*
D03*
X113150D02*
D03*
X118150D02*
D03*
X123150D02*
D03*
X128150D02*
D03*
X133150D02*
D03*
X138150D02*
D03*
X143150D02*
D03*
X148150D02*
D03*
X153150D02*
D03*
X158150D02*
D03*
X163150D02*
D03*
X168150D02*
D03*
X173150D02*
D03*
X178150D02*
D03*
D69*
X194850Y161780D02*
D03*
X46450D02*
D03*
M02*
